<svg width="731" height="731" viewBox="0 0 731 731" fill="none" xmlns="http://www.w3.org/2000/svg">
<path d="M654.853 502.564V289.355H76.1445V624.397C76.1445 641.219 89.7812 654.855 106.603 654.855H365.499" stroke="#7d7d7d" stroke-width="60" stroke-linecap="round" stroke-linejoin="round"/>
<path d="M76.1445 152.29C76.1445 135.469 89.7812 121.832 106.603 121.832H624.395C641.217 121.832 654.853 135.469 654.853 152.29V289.353H76.1445V152.29Z" stroke="#7d7d7d" stroke-width="60" stroke-linejoin="round"/>
<path d="M243.668 76.1445V197.978" stroke="#7d7d7d" stroke-width="60" stroke-linecap="round"/>
<path d="M487.332 76.1445V197.978" stroke="#7d7d7d" stroke-width="60" stroke-linecap="round"/>
<path d="M456.874 593.939C515.75 593.939 563.478 546.21 563.478 487.335C563.478 428.459 515.75 380.73 456.874 380.73C397.998 380.73 350.27 428.459 350.27 487.335C350.27 546.21 397.998 593.939 456.874 593.939Z" stroke="#7d7d7d" stroke-width="60"/>
<path d="M548.25 563.48L639.625 639.626"  stroke-width="60" stroke-linecap="round" stroke-linejoin="round"/>
</svg>
