<svg width="800" height="800" viewBox="0 0 800 800" xmlns="http://www.w3.org/2000/svg">
<g clip-path="url(#clip0_676_3888)">
<path d="M459 432H309C289.109 432 270.032 442.114 255.967 460.118C241.902 478.121 234 502.539 234 528V592H284V528C284 519.513 286.634 511.374 291.322 505.373C296.011 499.371 302.37 496 309 496H459C465.63 496 471.989 499.371 476.678 505.373C481.366 511.374 484 519.513 484 528V592H534V528C534 502.539 526.098 478.121 512.033 460.118C497.968 442.114 478.891 432 459 432Z" />
<path d="M384 407C403.778 407 423.112 401.135 439.557 390.147C456.002 379.159 468.819 363.541 476.388 345.268C483.957 326.996 485.937 306.889 482.079 287.491C478.22 268.093 468.696 250.275 454.711 236.289C440.725 222.304 422.907 212.78 403.509 208.922C384.111 205.063 364.004 207.043 345.732 214.612C327.459 222.181 311.841 234.998 300.853 251.443C289.865 267.888 284 287.222 284 307C284 333.522 294.536 358.957 313.289 377.711C332.043 396.464 357.478 407 384 407ZM384 257C393.889 257 403.556 259.933 411.779 265.427C420.001 270.921 426.41 278.73 430.194 287.866C433.978 297.002 434.969 307.056 433.039 316.755C431.11 326.454 426.348 335.363 419.355 342.355C412.363 349.348 403.454 354.11 393.755 356.039C384.055 357.969 374.002 356.978 364.866 353.194C355.73 349.41 347.921 343.001 342.427 334.779C336.932 326.556 334 316.889 334 307C334 293.739 339.268 281.022 348.645 271.645C358.021 262.268 370.739 257 384 257Z"/>
<path d="M384 750H156.8C141.741 749.986 127.302 744.714 116.654 735.34C106.005 725.966 100.016 713.257 100 700V100C100.016 86.7434 106.005 74.0338 116.654 64.66C127.302 55.2862 141.741 50.0139 156.8 50H611.2C626.259 50.0139 640.698 55.2862 651.346 64.66C661.995 74.0338 667.984 86.7434 668 100V700H611.2V100H156.8V700H384V750Z"/>
<path d="M484 133H284V183H484V133Z" />
<path d="M384 750H611.2C626.259 749.986 640.698 744.714 651.346 735.34C661.995 725.966 667.984 713.257 668 700V100C667.984 86.7434 661.995 74.0338 651.346 64.66C640.698 55.2862 626.259 50.0139 611.2 50H156.8C141.741 50.0139 127.302 55.2862 116.654 64.66C106.005 74.0338 100.016 86.7434 100 100V350H156.8V100H611.2V700H384V750Z"/>
</g>
<defs>
<clipPath id="clip0_676_3888">
<rect width="800" height="800"/>
</clipPath>
</defs>
</svg>
