<svg version="1.2" xmlns="http://www.w3.org/2000/svg" viewBox="0 0 800 800" width="800" height="800">
	<style>
		.s0 { fill: #115ba1 } 
	</style>
	<path class="s0" d="m266.67 400c-18.41 0-33.34 14.92-33.34 33.33 0 18.41 14.93 33.34 33.34 33.34h266.66c18.41 0 33.34-14.93 33.34-33.34 0-18.41-14.93-33.33-33.34-33.33z"/>
	<path class="s0" d="m233.33 566.67c0-18.41 14.93-33.34 33.34-33.34h133.33c18.41 0 33.33 14.93 33.33 33.34 0 18.41-14.92 33.33-33.33 33.33h-133.33c-18.41 0-33.34-14.92-33.34-33.33z"/>
	<path fill-rule="evenodd" class="s0" d="m233.33 66.67c18.41 0 33.34 14.92 33.34 33.33v33.33h266.66v-33.33c0-18.41 14.93-33.33 33.34-33.33 18.41 0 33.33 14.92 33.33 33.33v36.67c76.07 15.44 133.33 82.7 133.33 163.33v266.67c0 92.04-74.62 166.66-166.66 166.66h-333.34c-92.04 0-166.66-74.62-166.66-166.66v-266.67c0-80.63 57.26-147.89 133.33-163.33v-36.67c0-18.41 14.92-33.33 33.33-33.33zm433.34 266.66h-533.34v233.34c0 55.23 44.77 100 100 100h333.34c55.23 0 100-44.77 100-100z"/>
</svg>