<svg width="1106" height="1145" viewBox="0 0 1106 1145" fill="none" xmlns="http://www.w3.org/2000/svg">
<g clip-path="url(#clip0_227_3022)">
<path d="M503.23 905.976V329.195C503.23 306.71 475.917 289.113 441.017 289.113C406.118 289.113 378.805 306.71 378.805 329.195V905.976C378.805 928.46 406.118 946.057 441.017 946.057C475.917 946.057 503.23 928.46 503.23 905.976Z" fill="#115BA1"/>
<path d="M316.593 905.976V329.195C316.593 306.71 289.28 289.113 254.38 289.113C219.481 289.113 192.168 306.71 192.168 329.195V905.976C192.168 928.46 219.481 946.057 254.38 946.057C289.28 946.057 316.593 928.46 316.593 905.976Z" fill="#115BA1"/>
<path d="M877.89 905.976V329.195C877.89 306.71 850.577 289.113 815.677 289.113C780.778 289.113 753.465 306.71 753.465 329.195V905.976C753.465 928.46 780.778 946.057 815.677 946.057C850.577 946.057 877.89 928.46 877.89 905.976Z" fill="#115BA1"/>
<path d="M1064.53 905.897V616.951C1064.53 594.424 1037.21 576.793 1002.31 576.793C967.414 576.793 940.102 594.424 940.102 616.951V905.897C940.102 928.425 967.414 946.055 1002.31 946.055C1037.21 946.055 1064.53 928.425 1064.53 905.897Z" fill="#115BA1"/>
<path d="M691.249 905.897V616.951C691.249 594.424 663.936 576.793 629.037 576.793C594.137 576.793 566.824 594.424 566.824 616.951V905.897C566.824 928.425 594.137 946.055 629.037 946.055C663.936 946.055 691.249 928.425 691.249 905.897Z" fill="#115BA1"/>
<path d="M1086 1099.67V1054.33C1086 1029.3 1058.91 1009 1025.5 1009H57.5C24.0868 1009 -3 1029.3 -3 1054.33V1099.67C-3 1124.7 24.0868 1145 57.5 1145H1025.5C1058.91 1145 1086 1124.7 1086 1099.67Z" fill="#115BA1"/>
<path d="M41 1077H87C112.405 1077 133 1050.21 133 1017.17V59.8334C133 26.7883 112.405 0 87 0H41C15.5949 0 -5 26.7883 -5 59.8334V1017.17C-5 1050.21 15.5949 1077 41 1077Z" fill="#115BA1"/>
</g>
<defs>
<clipPath id="clip0_227_3022">
<rect width="1106" height="1145" fill="white"/>
</clipPath>
</defs>
</svg>
